# AST/ASF file generated using VICON BodyLanguage
# -----------------------------------------------
:version 1.10
:name VICON
:units
  mass 1.0
  length 0.45
  angle deg
:documentation
   .ast/.asf automatically generated from VICON data using
   VICON BodyBuilder and BodyLanguage model FoxedUp or BRILLIANT.MOD
:root
   order TX TY TZ RX RY RZ
   axis XYZ
   position 0 0 0  
   orientation 0 0 0 
:bonedata
  begin
     id 1 
     name lhipjoint
     direction 0.558404 -0.748506 0.357664 
     length 2.4234 
     axis 0 0 0  XYZ
  end
  begin
     id 2 
     name lfemur
     direction 0.34202 -0.939693 0  
     length 7.14567  
     axis 0 0 20  XYZ
    dof rx ry rz
    limits (-160.0 20.0)
           (-70.0 70.0)
           (-60.0 70.0)
  end
  begin
     id 3 
     name ltibia
     direction 0.34202 -0.939693 0   
     length 8.13956   
     axis 0 0 20   XYZ
    dof rx
    limits (-10.0 170.0)
  end
  begin
     id 4 
     name lfoot
     direction 0.0791314 -0.217412 0.972867   
     length 2.00134   
     axis -90 7.62852e-016 20   XYZ
    dof rx rz
    limits (-45.0 90.0)
           (-70.0 20.0)
  end
  begin
     id 5 
     name ltoes
     direction 1.53547e-011 -4.21922e-011 1   
     length 1.00735   
     axis -90 7.62852e-016 20   XYZ
    dof rx
    limits (-90.0 20.0)
  end
  begin
     id 6 
     name rhipjoint
     direction -0.496392 -0.78327 0.374276   
     length 2.31584  
     axis 0 0 0  XYZ 
  end
  begin
     id 7 
     name rfemur
     direction -0.34202 -0.939693 0   
     length 7.47417   
     axis 0 0 -20   XYZ
    dof rx ry rz
    limits (-160.0 20.0)
           (-70.0 70.0)
           (-70.0 60.0)
  end
  begin
     id 8 
     name rtibia
     direction -0.34202 -0.939693 0   
     length 7.69071   
     axis 0 0 -20   XYZ
    dof rx
    limits (-10.0 170.0)
 end
 begin
     id 9 
     name rfoot
     direction -0.103069 -0.28318 0.953512   
     length 2.16135  
     axis -90 -7.62852e-016 -20   XYZ
    dof rx rz
    limits (-45.0 90.0)
           (-20.0 70.0)
  end
  begin
     id 10 
     name rtoes
     direction -1.53581e-011 -4.21904e-011 1   
     length 1.07867   
     axis -90 -7.62852e-016 -20   XYZ
    dof rx
    limits (-90.0 20.0)
  end
  begin
     id 11 
     name lowerback
     direction -0.0258961 0.994776 -0.0987407   
     length 2.19412   
     axis 0 0 0   XYZ
    dof rx ry rz
    limits (-20.0 45.0)
           (-30.0 30.0)
           (-30.0 30.0)
  end
  begin
     id 12 
     name upperback
     direction 0.0402454 0.999185 0.00320666   
     length 2.18445   
     axis 0 0 0   XYZ
    dof rx ry rz
    limits (-20.0 45.0)
           (-30.0 30.0)
           (-30.0 30.0)
  end
  begin
     id 13 
     name thorax
     direction 0.0519376 0.997415 0.0496558   
     length 2.21487   
     axis 0 0 0   XYZ
    dof rx ry rz
    limits (-20.0 45.0)
           (-30.0 30.0)
           (-30.0 30.0)
  end
  begin
     id 14 
     name lowerneck
     direction -0.0921276 0.983211 0.157506   
     length 1.61201   
     axis 0 0 0   XYZ
    dof rx ry rz
    limits (-20.0 45.0)
           (-30.0 30.0)
           (-30.0 30.0)
  end
  begin
     id 15 
     name upperneck
     direction 0.0820814 0.98162 -0.172292   
     length 1.65275   
     axis 0 0 0   XYZ
    dof rx ry rz
    limits (-20.0 45.0)
           (-30.0 30.0)
           (-30.0 30.0)
  end
  begin
     id 16
     name head
     direction 0.0336554 0.996413 -0.0776455  
     length 1.66415  
     axis 0 0 0   XYZ
    dof rx ry rz
    limits (-20.0 45.0)
           (-30.0 30.0)
           (-30.0 30.0)
  end
  begin
     id 17 
     name lclavicle
     direction 0.94696 0.284418 -0.149576  
     length 3.41447  
     axis 0 0 0   XYZ
    dof ry rz
    limits (-20.0 10.0)
           (0.0 20.0)
  end
  begin
     id 18 
     name lhumerus
     direction 1 -0.000130264 -9.81312e-005   
     length 5.19964   
     axis 180 -30 -90   XYZ
    dof rx ry rz
    limits (-60.0 90.0)
           (-90.0 90.0)
           (-90.0 90.0)
  end
  begin
     id 19
     name lradius
     direction 1 -4.48961e-011 1.43854e-026   
     length 3.32189   
     axis 180 -30 -90   XYZ
    dof rx
    limits (-10.0 170.0)
  end
  begin
     id 20
     name lwrist
     direction 1 -4.48958e-011 3.1502e-026   
     length 1.66095   
     axis -1.97692e-014 90 90   XYZ
    dof ry
    limits (-180.0 0.0)
 end
  begin
     id 21 
     name lhand
     direction 1 -4.48927e-011 6.3004e-026   
     length 0.645616   
     axis -4.02019e-014 90 90   XYZ
    dof rx rz
    limits (-90.0 90.0)
           (-45.0 45.0)
  end
  begin
     id 22 
     name lfingers
     direction 1 -4.4904e-011 1.26008e-025   
     length 0.520512   
     axis -8.04039e-014 90 90   XYZ
    dof rx
    limits (0.0 90.0)
  end
  begin
     id 23
     name lthumb
     direction 0.707107 -6.34947e-011 0.707107   
     length 0.747354   
     axis -90 45 2.85299e-015   XYZ
    dof rx rz
    limits (-45.0 45.0)
           (-45.0 45.0)
  end
  begin
     id 24 
     name rclavicle
     direction -0.909391 0.383475 -0.161107   
     length 3.25176  
     axis 0 0 0   XYZ 
    dof ry rz
    limits (-10.0 20.0)
           (-20.0 0.0)
  end
  begin
     id 25 
     name rhumerus
     direction -1 -4.48965e-011 -1.81384e-027  
     length 5.6595   
     axis 180 30 90   XYZ
    dof rx ry rz
    limits (-90.0 60.0)
           (-90.0 90.0)
           (-90.0 90.0)
  end
  begin
     id 26 
     name rradius
     direction -1 -4.48996e-011 -8.09397e-027   
     length 3.37604   
     axis 180 30 90   XYZ
    dof rx
    limits (-10.0 170.0)
  end
  begin
     id 27 
     name rwrist
     direction -1 -4.48927e-011 -1.56669e-026   
     length 1.68802   
     axis 1.21142e-014 -90 -90   XYZ
    dof ry
    limits (-180.0 0.0)
  end
  begin
     id 28
     name rhand
     direction -1 -4.48912e-011 -3.13339e-026   
     length 0.824702   
     axis 1.99937e-014 -90 -90   XYZ
    dof rx rz
    limits (-90.0 90.0)
           (-45.0 45.0)
  end
  begin
     id 29
     name rfingers
     direction -1 -4.49011e-011 -6.26677e-026   
     length 0.664896   
     axis 3.99874e-014 -90 -90   XYZ
    dof rx
    limits (0.0 90.0)
  end
  begin
     id 30
     name rthumb
     direction -0.707107 -6.34931e-011 0.707107   
     length 0.954662   
     axis -90 -45 -2.85299e-015   XYZ
    dof rx rz
    limits (-45.0 45.0)
           (-45.0 45.0)
  end
:hierarchy
  begin
    root lhipjoint rhipjoint lowerback
    lhipjoint lfemur
    lfemur ltibia
    ltibia lfoot
    lfoot ltoes
    rhipjoint rfemur
    rfemur rtibia
    rtibia rfoot
    rfoot rtoes
    lowerback upperback
    upperback thorax
    thorax lowerneck lclavicle rclavicle
    lowerneck upperneck
    upperneck head
    lclavicle lhumerus
    lhumerus lradius
    lradius lwrist
    lwrist lhand lthumb
    lhand lfingers
    rclavicle rhumerus
    rhumerus rradius
    rradius rwrist
    rwrist rhand rthumb
    rhand rfingers
  end

#!OML:ASF F:\VICON\USERDATA\INSTALL\rory3\rory3.ASF
:FULLY-SPECIFIED
:DEGREES
197
root 13.4945 17.7586 -40.5293 11.5123 -49.1392 -2.09259
lowerback 7.06392 -1.61136 -9.51617
upperback -0.14272 -2.86238 1.92725
thorax -3.55994 -1.23639 7.67912
lowerneck -13.7675 1.35345 -10.6304
upperneck 19.203 2.5658 7.70657
head 7.9424 1.17975 4.6227
rclavicle 3.60794e-014 -3.97569e-016
rhumerus -37.5082 -15.8949 -72.4242
rradius 39.8209
rwrist -15.6451
rhand -10.7467 17.5683
rfingers 7.12502
rthumb 15.2645 -11.8485
lclavicle 3.60794e-014 -3.97569e-016
lhumerus -23.8891 18.086 80.3107
lradius 32.067
lwrist -1.8395
lhand -3.78415 32.6331
lfingers 7.12502
lthumb 21.9612 61.4065
rfemur -33.8406 2.20133 11.9144
rtibia 58.0984
rfoot -11.5455 -1.47862
rtoes 1.58547
lfemur -17.056 10.0988 -27.6472
ltibia 40.7041
lfoot -24.4729 15.3781
ltoes -5.90936
198
root 13.455 17.7569 -40.483 11.4634 -49.4901 -2.23737
lowerback 7.11294 -1.52555 -9.45119
upperback -0.0561879 -2.74571 1.89105
thorax -3.52412 -1.18529 7.59334
lowerneck -13.7892 1.49332 -10.5832
upperneck 19.2757 2.73583 7.76366
head 7.95191 1.26785 4.65314
rclavicle 5.05907e-014 -1.82882e-014
rhumerus -37.6261 -15.6254 -72.4986
rradius 39.7668
rwrist -15.8828
rhand -10.9583 17.5558
rfingers 7.12502
rthumb 15.0606 -11.8764
lclavicle 5.05907e-014 -1.82882e-014
lhumerus -23.6159 17.9087 80.1773
lradius 31.7833
lwrist -1.69362
lhand -3.89049 32.2227
lfingers 7.12502
lthumb 21.8591 61.008
rfemur -33.7632 2.41106 12.1661
rtibia 58.1314
rfoot -12.3954 -1.40868
rtoes -1.61411
lfemur -16.6527 9.9055 -27.6456
ltibia 40.6692
lfoot -24.5651 15.8367
ltoes -6.60354
199
root 13.4191 17.7592 -40.4491 11.4886 -49.5567 -2.25084
lowerback 7.16633 -1.56096 -9.5312
upperback -0.0580494 -2.80296 1.9457
thorax -3.53841 -1.21114 7.70534
lowerneck -13.9573 1.61182 -10.8308
upperneck 19.4568 2.92425 7.97848
head 8.0139 1.35834 4.79596
rclavicle 1.5704e-014 5.56597e-015
rhumerus -37.6665 -15.3925 -72.4373
rradius 39.6072
rwrist -15.8574
rhand -11.0346 17.5712
rfingers 7.12502
rthumb 14.9871 -11.8664
lclavicle 1.5704e-014 5.56597e-015
lhumerus -23.4462 18.1151 80.1004
lradius 31.5723
lwrist -1.77317
lhand -3.86524 31.8402
lfingers 7.12502
lthumb 21.8834 60.6227
rfemur -33.8567 2.40138 12.3916
rtibia 58.1336
rfoot -13.6906 -1.37339
rtoes -4.21154
lfemur -16.4824 9.81765 -27.6385
ltibia 40.6555
lfoot -24.7643 15.8068
ltoes -6.47696
200
root 13.3851 17.7597 -40.4242 11.5435 -49.4879 -2.06941
lowerback 7.10084 -1.62871 -9.63926
upperback -0.0809246 -2.89822 1.89842
thorax -3.50395 -1.25797 7.72131
lowerneck -14.2958 1.64031 -10.7207
upperneck 19.4801 2.96887 8.01961
head 8.07876 1.39684 4.80545
rclavicle 3.97569e-015 -4.77083e-015
rhumerus -37.6296 -15.5201 -72.4205
rradius 39.3436
rwrist -15.6558
rhand -10.9085 17.6129
rfingers 7.12502
rthumb 15.1086 -11.8157
lclavicle 3.97569e-015 -4.77083e-015
lhumerus -23.4562 18.3757 80.0001
lradius 31.619
lwrist -2.12846
lhand -3.74768 31.6702
lfingers 7.12502
lthumb 21.9962 60.4395
rfemur -34.157 2.28464 12.5476
rtibia 58.0815
rfoot -14.7808 -1.59489
rtoes -7.77689
lfemur -16.5287 9.94025 -27.7209
ltibia 40.6198
lfoot -24.688 15.6652
ltoes -6.72815
201
root 13.3471 17.7609 -40.3923 11.7545 -49.6155 -2.13153
lowerback 6.97901 -1.57173 -9.55583
upperback -0.0766309 -2.80642 1.80141
thorax -3.45801 -1.21713 7.55566
lowerneck -14.4572 1.65822 -10.1786
upperneck 19.5105 2.96941 7.6119
head 8.13649 1.39708 4.58089
rclavicle -5.26779e-015 -7.95139e-016
rhumerus -37.7305 -15.8582 -72.3967
rradius 39.1607
rwrist -15.5307
rhand -10.6001 17.7299
rfingers 7.12502
rthumb 15.4057 -11.6761
lclavicle -5.26779e-015 -7.95139e-016
lhumerus -23.4443 18.4271 79.8778
lradius 31.7375
lwrist -2.26709
lhand -3.45849 32.3718
lfingers 7.12502
lthumb 22.2739 61.1082
rfemur -34.4316 2.38096 12.8719
rtibia 57.9778
rfoot -15.6114 -2.27344
rtoes -13.1935
lfemur -16.5225 9.93766 -27.7145
ltibia 40.589
lfoot -24.5366 15.9077
ltoes -7.32426
202
root 13.3076 17.7663 -40.3604 11.9439 -49.6525 -2.22575
lowerback 6.98988 -1.5428 -9.60862
upperback -0.10533 -2.77185 1.87076
thorax -3.49563 -1.1952 7.65919
lowerneck -13.5259 1.63064 -10.6596
upperneck 18.6896 2.9309 7.7809
head 7.68949 1.36935 4.66287
rclavicle -4.65156e-014 -2.22639e-014
rhumerus -37.8582 -15.918 -72.1293
rradius 39.0038
rwrist -15.4184
rhand -10.3722 17.7572
rfingers 7.12502
rthumb 15.6252 -11.6317
lclavicle -4.65156e-014 -2.22639e-014
lhumerus -23.3952 18.46 79.929
lradius 31.756
lwrist -2.04867
lhand -2.76323 32.667
lfingers 7.12502
lthumb 22.9412 61.322
rfemur -34.6241 2.37447 13.2481
rtibia 57.7982
rfoot -16.457 -2.7715
rtoes -18.1223
lfemur -16.4543 9.70773 -27.6558
ltibia 40.5442
lfoot -24.4238 16.1194
ltoes -7.17406
203
root 13.2723 17.77 -40.3467 12.0082 -49.353 -2.20098
lowerback 7.26834 -1.5769 -9.74359
upperback -0.126487 -2.85574 1.92631
thorax -3.64911 -1.22437 7.81798
lowerneck -13.8092 1.61683 -10.5716
upperneck 18.8839 2.94538 7.64702
head 7.80776 1.36843 4.61791
rclavicle -7.95139e-016 2.78299e-015
rhumerus -37.9225 -15.9826 -71.9492
rradius 38.8711
rwrist -15.5094
rhand -10.2504 17.6843
rfingers 7.12502
rthumb 15.7425 -11.6955
lclavicle -7.95139e-016 2.78299e-015
lhumerus -23.1297 18.2383 79.9864
lradius 31.6085
lwrist -1.95837
lhand -2.97844 32.3255
lfingers 7.12502
lthumb 22.7347 61.0061
rfemur -34.7662 2.26285 13.6469
rtibia 57.5571
rfoot -15.4235 1.38164
rtoes -7.56137
lfemur -16.3989 9.49423 -27.5214
ltibia 40.5245
lfoot -24.1475 15.9152
ltoes -7.02776
204
root 13.2252 17.7699 -40.2981 12.389 -49.7618 -2.77537
lowerback 7.19858 -1.43086 -9.47739
upperback -0.0325628 -2.62675 1.96038
thorax -3.56675 -1.12364 7.67675
lowerneck -13.932 1.67558 -10.4108
upperneck 18.9813 3.02013 7.55088
head 7.85916 1.40504 4.57182
rclavicle -1.20265e-014 1.70955e-014
rhumerus -37.9678 -16.2053 -71.845
rradius 38.6365
rwrist -15.3946
rhand -10.1052 17.7736
rfingers 7.12502
rthumb 15.8823 -11.5951
lclavicle -1.20265e-014 1.70955e-014
lhumerus -22.9809 18.1317 79.9184
lradius 31.5492
lwrist -1.96874
lhand -3.35345 32.1277
lfingers 7.12502
lthumb 22.3747 60.8519
rfemur -34.7657 2.81087 14.2669
rtibia 57.2347
rfoot -14.6577 4.09016
rtoes 1.74097
lfemur -16.0871 9.31077 -27.2446
ltibia 40.5017
lfoot -24.0682 16.6788
ltoes -9.37933
205
root 13.1827 17.7764 -40.2655 12.6827 -49.8278 -3.05278
lowerback 7.23029 -1.4459 -9.39991
upperback -0.0192448 -2.64164 1.99431
thorax -3.56917 -1.13264 7.67118
lowerneck -13.8021 1.76898 -10.4274
upperneck 18.8187 3.13595 7.58729
head 7.76919 1.46512 4.58862
rclavicle 6.09275e-014 -1.19271e-014
rhumerus -37.93 -16.179 -71.8744
rradius 38.361
rwrist -15.1076
rhand -10.4712 17.7307
rfingers 7.12502
rthumb 15.5299 -11.6657
lclavicle 6.09275e-014 -1.19271e-014
lhumerus -23.0559 18.4634 79.7406
lradius 31.6926
lwrist -2.13896
lhand -3.29648 32.445
lfingers 7.12502
lthumb 22.4294 61.1626
rfemur -34.8907 3.07088 14.8095
rtibia 56.8858
rfoot -14.3111 5.81373
rtoes 8.25843
lfemur -16.0166 9.25581 -27.0271
ltibia 40.5295
lfoot -24.3603 16.614
ltoes -8.77629
206
root 13.1381 17.7811 -40.2354 12.6886 -49.8568 -2.85632
lowerback 7.25582 -1.48112 -9.63638
upperback -0.0561004 -2.7139 1.9558
thorax -3.59975 -1.16132 7.77374
lowerneck -13.8807 1.83519 -10.5415
upperneck 18.9096 3.2249 7.7527
head 7.79796 1.51426 4.6769
rclavicle 5.86415e-014 -2.3059e-014
rhumerus -37.9899 -15.8211 -71.9863
rradius 38.2496
rwrist -15.2407
rhand -10.9402 17.4555
rfingers 7.12502
rthumb 15.0781 -11.9754
lclavicle 5.86415e-014 -2.3059e-014
lhumerus -23.1938 18.5436 79.665
lradius 31.0316
lwrist -4.53626
lhand -5.11124 30.5933
lfingers 7.12502
lthumb 20.6865 59.5108
rfemur -35.1133 3.09639 15.0577
rtibia 56.5005
rfoot -14.2993 6.93782
rtoes 11.1618
lfemur -16.0102 9.20135 -27.1226
ltibia 40.5551
lfoot -24.7777 16.2768
ltoes -6.65617
207
root 13.09 17.7838 -40.206 13.0638 -50.0476 -2.89592
lowerback 7.01279 -1.40543 -9.7228
upperback -0.146382 -2.60014 1.92153
thorax -3.57966 -1.10069 7.76806
lowerneck -14.318 1.85482 -10.4573
upperneck 19.0867 3.23661 7.94736
head 7.92998 1.54756 4.74811
rclavicle -6.04305e-014 -5.96354e-015
rhumerus -38.1823 -15.8722 -71.9259
rradius 38.1109
rwrist -15.546
rhand -10.8467 17.4581
rfingers 7.12502
rthumb 15.1681 -11.966
lclavicle -6.04305e-014 -5.96354e-015
lhumerus -23.0045 18.019 79.6379
lradius 30.8589
lwrist -4.06404
lhand -5.89118 30.3536
lfingers 7.12502
lthumb 19.937 59.3509
rfemur -35.5424 3.24029 15.4394
rtibia 56.0292
rfoot -14.4344 7.74889
rtoes 13.5132
lfemur -16.2196 9.2721 -27.1239
ltibia 40.6194
lfoot -24.766 16.2925
ltoes -6.78372
